<?xml version="1.0" encoding="UTF-8"?>
<svg id="Calque_1" data-name="Calque 1" xmlns="http://www.w3.org/2000/svg" viewBox="0 0 213.38 213.38">
  <defs>
    <style>
      .cls-1 {
        fill: none;
        stroke: #fde5da;
        stroke-miterlimit: 10;
        stroke-width: 3px;
      }

      .cls-2 {
        fill: #a9d9db;
      }
    </style>
  </defs>
  <g>
    <path class="cls-2" d="M115.62,69.07c0,4.93-4,8.93-8.93,8.93s-8.93-4-8.93-8.93,4-8.93,8.93-8.93,8.93,4,8.93,8.93Z"/>
    <path class="cls-2" d="M163.55,92.46c-2.48-.2-8.68-.78-17.69,1.61-1.14-9.29-3.7-16.51-6.87-24.21-12.61,4.43-23.93,11.81-32.3,20.07-8.38-8.26-19.69-15.64-32.3-20.07-3.17,7.7-5.73,14.92-6.87,24.21-9.67-2.53-15.21-1.81-17.69-1.61-2.66,14.01-.63,29.93,7.92,41.58,12.1,16.49,31.29,17.75,41.19,19.19-4.15-4.03-13.57-14.61-15.57-17.22,0,0-.04-.04-.04-.04h0c-8.88-11.6-11.68-23.73-11.03-37.9.13-2.91.66-5.85,1.09-8h0c.88-4.58,2.2-9.12,3.9-13.58,4.77,2.04,16.06,7.53,25.9,17.27-3.67,4.17-6.72,8.61-9.12,13.28,0,0-6.93-6.24-17.79-10.06-.19,1.82-.25,3.73-.19,5.55,15.85,6.87,26.45,18.77,30.51,25.64,3.39-4.44,5.64-7.91,10.76-12.66.95,2.57,1.69,5.22,2.24,7.91-1.58,2.54-6.76,10.44-12.91,15.54-6.15-5.1-11.33-13-12.91-15.54.28-1.39.53-2.64.92-4.01-1.22-1.21-2.74-2.5-4.28-3.71-1.02,3.08-1.55,5.75-2.09,8.69,6.18,11.28,13.01,16.85,18.29,21.12,5.58-4.44,13.32-10.95,18.45-21.12-2.35-13.37-10.22-24.87-12.44-27.68-1.26,1.23-2.54,2.54-3.63,3.79,2.45,3.19,4.54,6.52,6.22,9.98-3.14,2.76-5.96,5.73-8.53,9-2.57-3.26-5.39-6.24-8.52-9,4.1-8.4,11.44-16.73,14.92-19.43,0,0,0,0,0,0,9.07-8.05,18.69-12.71,22.99-14.55,2.48,6.52,4.07,12.93,4.74,19.1-6.91,2.36-13.03,5.54-18.72,9.51.85,1.43,1.64,3.11,2.31,4.72,5.08-3.62,12.59-7.67,19.26-9.7,6.1-1.86,12.57-2.73,15.44-2.73.62,5.51,1.4,21.25-7.65,33.59-5.17,7.04-12.76,11.92-22.63,14.54,7.31-7.52,17.34-21.61,17.54-42.43-1.75.5-3.58,1.07-5.22,1.69-.49,13.58-5.31,23.63-11.11,31.19h0c-.4.45-9.3,11.15-15.61,17.26,9.9-1.44,29.1-2.7,41.19-19.19,8.55-11.65,10.58-27.57,7.92-41.58ZM84.55,145.52c-9.87-2.63-17.46-7.5-22.63-14.54-9.05-12.34-8.27-28.08-7.65-33.59h.11c3.76,0,8.11.66,12.69,1.94-1.06,22.9,9.74,38.24,17.48,46.2Z"/>
  </g>
  <rect class="cls-1" x="15.78" y="15.78" width="181.82" height="181.82" rx="56.44" ry="56.44" transform="translate(106.69 -44.19) rotate(45)"/>
</svg>