<?xml version="1.0" encoding="UTF-8"?>
<svg id="Calque_1" data-name="Calque 1" xmlns="http://www.w3.org/2000/svg" viewBox="0 0 759.98 213.38">
  <defs>
    <style>
      .cls-1 {
        fill: none;
        stroke: #fde5da;
        stroke-miterlimit: 10;
        stroke-width: 3px;
      }

      .cls-2 {
        fill: #a9d9db;
      }

      .cls-3 {
        fill: #1d1d1b;
      }
    </style>
  </defs>
  <g>
    <path class="cls-3" d="M294.78,121.04c-1.41-.37-2.82-.73-4.22-1.09-1.4-.35-2.82-.68-4.27-.99-1.72,3.5-3.54,6.94-5.46,10.31-1.92,3.37-3.96,6.69-6.11,9.95-1.65,2.49-3.49,4.93-5.53,7.33-2.04,2.39-4.19,4.64-6.47,6.75-2.27,2.1-4.63,4.04-7.07,5.81-2.44,1.77-4.9,3.3-7.38,4.6-2.48,1.3-4.93,2.3-7.38,3.01-2.44.71-4.81,1.06-7.1,1.06-2.05,0-4.13-.36-6.21-1.09-2.09-.72-3.97-1.81-5.63-3.26-1.67-1.45-3.02-3.26-4.07-5.43-1.04-2.17-1.57-4.72-1.57-7.65,0-1.52.18-3.12.53-4.8.35-1.68.93-3.42,1.74-5.2.81-1.79,1.85-3.61,3.13-5.48,1.28-1.87,2.85-3.78,4.7-5.73,2.46-2.59,5.21-4.83,8.26-6.72,3.05-1.89,6.29-3.44,9.73-4.67s7.02-2.14,10.76-2.73c3.74-.59,7.53-.88,11.37-.88,2.53,0,5.04.12,7.55.35,2.51.24,5.03.57,7.55,1.01,1.79-3.71,3.4-7.39,4.85-11.06,1.45-3.67,2.71-7.29,3.79-10.86,1.62-5.46,2.78-10.19,3.49-14.2.71-4.01,1.06-7.48,1.06-10.41,0-2.49-.2-4.64-.61-6.44-.4-1.8-.93-3.33-1.57-4.6-.64-1.26-1.38-2.29-2.22-3.08-.84-.79-1.69-1.4-2.55-1.82-.86-.42-1.7-.71-2.53-.86-.83-.15-1.56-.23-2.2-.23-2.69,0-5.1.64-7.22,1.92-2.12,1.28-3.92,3.08-5.38,5.41-1.47,2.32-2.59,5.13-3.36,8.41-.77,3.28-1.16,6.93-1.16,10.94,0,3.13.27,6.03.81,8.69.54,2.66,1.21,5.09,2.02,7.28.81,2.19,1.69,4.13,2.65,5.81.96,1.68,1.85,3.1,2.68,4.24.82,1.15,1.51,2.02,2.05,2.63.54.61.83.91.86.91l-1.57,1.62c-2.16-1.85-4.18-3.91-6.06-6.16-1.89-2.26-3.52-4.68-4.9-7.28-1.38-2.59-2.48-5.35-3.28-8.26-.81-2.91-1.21-5.97-1.21-9.17,0-3.64.52-7.22,1.57-10.76,1.04-3.54,2.56-6.71,4.55-9.52,1.99-2.81,4.43-5.08,7.33-6.79,2.9-1.72,6.2-2.58,9.9-2.58.84,0,1.82.08,2.93.25,1.11.17,2.26.51,3.44,1.04,1.18.52,2.35,1.26,3.51,2.2,1.16.94,2.19,2.2,3.08,3.76.89,1.57,1.62,3.49,2.17,5.76.56,2.27.83,4.99.83,8.16,0,1.45-.07,2.99-.2,4.62-.14,1.63-.34,3.39-.61,5.28-.94,6.26-2.36,12.42-4.24,18.47-1.89,6.05-4.19,12-6.92,17.86,1.41.3,2.79.62,4.14.96,1.35.34,2.68.69,3.99,1.06l-.76,2.38ZM233.75,165.14c2.53.13,5.15-.35,7.88-1.46,2.73-1.11,5.47-2.72,8.24-4.82,2.76-2.11,5.51-4.64,8.26-7.6,2.74-2.96,5.42-6.21,8.03-9.75,2.61-3.54,5.12-7.29,7.53-11.27,2.41-3.97,4.66-8.05,6.74-12.23-1.72-.23-3.43-.42-5.13-.56-1.7-.13-3.44-.2-5.23-.2-5.25,0-10.11.59-14.58,1.77-4.46,1.18-8.52,2.75-12.18,4.7-3.66,1.95-6.88,4.19-9.68,6.72-2.79,2.53-5.14,5.13-7.02,7.81-1.89,2.68-3.32,5.34-4.29,7.98-.98,2.64-1.46,5.06-1.46,7.25,0,1.72.29,3.29.88,4.72.59,1.43,1.43,2.66,2.53,3.69,1.09,1.03,2.44,1.83,4.04,2.4,1.6.57,3.41.86,5.43.86Z"/>
    <path class="cls-3" d="M324.44,118.11c-1.55,1.82-3.08,3.49-4.6,5.03-1.52,1.53-3.02,2.85-4.52,3.94-1.5,1.09-2.99,1.95-4.47,2.58-1.48.62-2.98.93-4.5.93-1.28,0-2.43-.23-3.46-.68-1.03-.46-1.92-1.09-2.68-1.92-.76-.83-1.34-1.83-1.74-3.03-.4-1.2-.61-2.53-.61-4.02,0-2.32.51-4.71,1.54-7.17,1.03-2.46,2.32-4.85,3.89-7.17,1.57-2.32,3.3-4.53,5.2-6.62,1.9-2.09,3.71-3.94,5.43-5.56l2.17,1.52c-1.21,1.79-2.57,3.81-4.07,6.06-1.5,2.26-2.91,4.59-4.24,7s-2.45,4.82-3.36,7.22c-.91,2.41-1.36,4.64-1.36,6.69,0,1.38.26,2.56.78,3.54.52.98,1.52,1.46,3.01,1.46,1.62,0,3.39-.64,5.33-1.92,1.94-1.28,3.92-2.95,5.96-5,2.04-2.05,4.08-4.37,6.11-6.95,2.04-2.58,3.97-5.18,5.78-7.81,1.82-2.63,3.48-5.14,4.98-7.53,1.5-2.39,2.72-4.43,3.66-6.11l3.69,1.82c-1.95,3.84-3.83,7.42-5.63,10.74-1.8,3.32-3.4,6.3-4.8,8.94-1.4,2.64-2.51,4.94-3.33,6.9-.83,1.95-1.24,3.5-1.24,4.65,0,.47.1.86.3,1.16.2.3.52.46.96.46,1.25.03,2.62-.51,4.12-1.62,1.5-1.11,3.01-2.51,4.55-4.19,1.53-1.68,3.03-3.53,4.5-5.53,1.46-2,2.79-3.88,3.97-5.63l1.82,1.42c-.2.34-.62,1.03-1.26,2.07-.64,1.04-1.43,2.24-2.37,3.59-.94,1.35-2.02,2.76-3.23,4.24s-2.49,2.84-3.84,4.07c-1.35,1.23-2.75,2.24-4.19,3.03-1.45.79-2.88,1.19-4.29,1.19-.88,0-1.66-.15-2.35-.46-.69-.3-1.27-.71-1.74-1.21-.47-.51-.84-1.09-1.11-1.77-.27-.67-.4-1.38-.4-2.12,0-.88.14-1.83.43-2.88.29-1.04.7-2.15,1.24-3.33Z"/>
    <path class="cls-3" d="M382.33,55.61c1.18,0,2.16.29,2.96.86.79.57,1.19,1.62,1.19,3.13,0,1.04-.21,2.29-.63,3.74-.42,1.45-.99,3.02-1.72,4.72-.72,1.7-1.57,3.49-2.55,5.36-.98,1.87-2.03,3.73-3.16,5.58-1.13,1.85-2.31,3.65-3.54,5.41-1.23,1.75-2.45,3.37-3.66,4.85-2.42,3-4.52,5.52-6.29,7.58-1.77,2.05-3.29,3.8-4.57,5.23-1.28,1.43-2.36,2.59-3.23,3.49-.88.89-1.65,1.66-2.32,2.3-.67.64-1.3,1.22-1.87,1.74-.57.52-1.16,1.1-1.77,1.74-.27,1.28-.4,2.5-.38,3.66.02,1.16.03,2.23.03,3.21,0,2.93.47,5.1,1.41,6.52.94,1.42,2.27,2.12,3.99,2.12,1.14,0,2.3-.29,3.46-.88,1.16-.59,2.31-1.36,3.46-2.3,1.14-.94,2.26-2.01,3.33-3.21,1.08-1.2,2.1-2.41,3.06-3.64s1.83-2.42,2.6-3.56c.77-1.14,1.45-2.14,2.02-2.98l1.87,1.42c-.1.13-.43.67-.99,1.59-.56.93-1.29,2.05-2.2,3.36-.91,1.31-1.99,2.72-3.23,4.22-1.25,1.5-2.59,2.89-4.04,4.17-1.45,1.28-2.97,2.34-4.57,3.18-1.6.84-3.23,1.26-4.88,1.26-1.38,0-2.7-.26-3.97-.78-1.26-.52-2.37-1.35-3.33-2.48-.96-1.13-1.74-2.57-2.32-4.32-.59-1.75-.88-3.86-.88-6.32,0-3.06.36-6.27,1.09-9.62.72-3.35,1.71-6.72,2.96-10.1,1.25-3.38,2.71-6.73,4.4-10.03,1.68-3.3,3.48-6.44,5.38-9.42,1.9-2.98,3.89-5.74,5.96-8.29,2.07-2.54,4.11-4.74,6.11-6.59,2-1.85,3.93-3.3,5.78-4.35,1.85-1.04,3.54-1.57,5.05-1.57ZM352.07,106.84c2.86-2.96,5.63-5.97,8.31-9.02s5.19-6.06,7.53-9.04c2.34-2.98,4.49-5.88,6.44-8.69,1.95-2.81,3.62-5.46,5-7.96,1.38-2.49,2.46-4.77,3.23-6.82.77-2.05,1.16-3.82,1.16-5.3,0-.27-.13-.63-.4-1.09-.27-.45-.59-.68-.96-.68-1.04,0-2.43.69-4.14,2.07-1.72,1.38-3.58,3.26-5.58,5.63-2,2.38-4.08,5.15-6.21,8.31-2.14,3.17-4.15,6.55-6.04,10.15-1.89,3.6-3.57,7.33-5.05,11.17-1.48,3.84-2.58,7.6-3.28,11.27Z"/>
    <path class="cls-3" d="M387.39,95.52c-.44.88-1.05,2.03-1.84,3.46-.79,1.43-1.64,3-2.55,4.7-.91,1.7-1.84,3.49-2.78,5.36-.94,1.87-1.79,3.69-2.55,5.46s-1.37,3.43-1.84,4.98c-.47,1.55-.71,2.86-.71,3.94,0,.98.2,1.64.61,2,.4.35.98.53,1.72.53,1.38,0,2.73-.46,4.04-1.36s2.62-2.1,3.92-3.56c1.3-1.47,2.57-3.14,3.81-5.03,1.25-1.89,2.49-3.79,3.74-5.71l1.82,1.42c-.98,1.75-2.08,3.62-3.31,5.61-1.23,1.99-2.6,3.83-4.12,5.53-1.52,1.7-3.18,3.11-5,4.22s-3.81,1.67-5.96,1.67c-2.02,0-3.57-.61-4.65-1.82-1.08-1.21-1.62-2.78-1.62-4.7,0-2.26.52-4.61,1.57-7.07,1.04-2.46,2.35-4.89,3.92-7.3,1.57-2.41,3.27-4.72,5.1-6.95,1.84-2.22,3.53-4.24,5.08-6.06l1.62.71ZM396.83,84.31c0,.67-.17,1.37-.5,2.1-.34.72-.77,1.37-1.29,1.94-.52.57-1.1,1.04-1.74,1.42-.64.37-1.28.56-1.92.56-.57,0-1.01-.21-1.31-.63-.3-.42-.46-.93-.46-1.54,0-.54.1-1.18.3-1.92s.51-1.44.91-2.1c.4-.66.89-1.22,1.46-1.69.57-.47,1.23-.71,1.97-.71s1.31.27,1.82.81c.51.54.76,1.13.76,1.77Z"/>
    <path class="cls-3" d="M396.78,117.6c-.07.4-.12.81-.15,1.21-.03.4-.05.81-.05,1.21,0,1.21.18,2.37.53,3.46s.88,2.05,1.57,2.88c.69.83,1.55,1.47,2.58,1.95,1.03.47,2.2.71,3.51.71,4.41,0,8.67-1.5,12.78-4.5,4.11-3,8.2-7.75,12.28-14.25l1.72,1.52c-2.22,3.71-4.48,6.83-6.77,9.37-2.29,2.54-4.57,4.61-6.85,6.19-2.27,1.58-4.5,2.73-6.69,3.44-2.19.71-4.28,1.06-6.27,1.06-1.45,0-2.98-.2-4.6-.61s-3.11-1.08-4.47-2.02c-1.36-.94-2.49-2.21-3.38-3.79-.89-1.58-1.34-3.55-1.34-5.91,0-2.53.43-4.96,1.29-7.3s1.98-4.52,3.36-6.54c1.38-2.02,2.96-3.86,4.75-5.53,1.78-1.67,3.59-3.09,5.43-4.27,1.83-1.18,3.63-2.1,5.38-2.75,1.75-.66,3.3-.98,4.65-.98.88,0,1.77.13,2.68.4.91.27,1.73.69,2.45,1.26.72.57,1.31,1.33,1.77,2.27.45.94.68,2.07.68,3.38,0,1.79-.41,3.46-1.24,5.03-.83,1.57-1.93,3.01-3.31,4.34-1.38,1.33-2.98,2.53-4.8,3.59-1.82,1.06-3.72,1.96-5.71,2.7-1.99.74-3.99,1.33-6.01,1.77-2.02.44-3.94.67-5.76.71ZM397.19,115.43c2.26-.24,4.38-.71,6.37-1.42,1.99-.71,3.81-1.57,5.46-2.6,1.65-1.03,3.12-2.15,4.42-3.36,1.3-1.21,2.38-2.44,3.26-3.69.88-1.25,1.55-2.44,2.02-3.59.47-1.14.71-2.17.71-3.08s-.24-1.63-.73-2.17c-.49-.54-1.07-.81-1.74-.81-1.48,0-3.15.53-5,1.59-1.85,1.06-3.71,2.53-5.56,4.4-1.85,1.87-3.6,4.07-5.23,6.59-1.63,2.53-2.96,5.24-3.97,8.13Z"/>
    <path class="cls-3" d="M593.77,146.55c-.1.07-.56.3-1.36.71-.81.4-1.87.84-3.18,1.31-1.31.47-2.81.9-4.5,1.29-1.68.39-3.44.58-5.25.58-2.96,0-5.62-.52-7.98-1.57-2.36-1.04-4.35-2.52-5.99-4.42-1.63-1.9-2.89-4.19-3.76-6.87-.88-2.68-1.31-5.65-1.31-8.92s.39-6.58,1.16-10.33c.77-3.76,1.78-7.62,3.03-11.59,1.25-3.97,2.65-7.95,4.22-11.92,1.57-3.97,3.15-7.75,4.75-11.34,1.6-3.59,3.12-6.87,4.57-9.85,1.45-2.98,2.69-5.46,3.74-7.45-1.89,2.16-4.04,4.64-6.47,7.45-2.43,2.81-5.01,5.89-7.75,9.25-2.75,3.35-5.6,6.92-8.56,10.71-2.96,3.79-5.95,7.73-8.97,11.82-3.01,4.09-6,8.29-8.97,12.58-2.96,4.29-5.79,8.61-8.49,12.96l-2.43-.81c.51-5.49,1.34-10.94,2.5-16.34,1.16-5.41,2.48-10.61,3.94-15.61,1.47-5,3.01-9.7,4.65-14.1,1.63-4.4,3.19-8.33,4.67-11.8-2.26,3.1-4.5,6.46-6.74,10.08-2.24,3.62-4.5,7.34-6.79,11.17-2.29,3.82-4.65,7.66-7.07,11.52-2.42,3.86-4.95,7.56-7.58,11.11-2.63,3.55-5.4,6.87-8.31,9.95-2.91,3.08-6.01,5.76-9.3,8.03-3.28,2.27-6.79,4.07-10.51,5.38-3.72,1.31-7.7,1.97-11.95,1.97-3.27,0-6.23-.49-8.89-1.46-2.66-.98-4.94-2.32-6.85-4.02-1.9-1.7-3.37-3.7-4.4-5.99-1.03-2.29-1.54-4.77-1.54-7.43s.41-4.94,1.24-7.05c.83-2.1,1.93-3.97,3.31-5.61,1.38-1.63,2.99-3.05,4.82-4.24,1.84-1.2,3.76-2.18,5.78-2.96,2.02-.77,4.07-1.35,6.14-1.72,2.07-.37,4.05-.56,5.94-.56,3.91,0,7.65.46,11.22,1.39,3.57.93,7.01,2.57,10.31,4.93l-1.77,1.97s-.47-.34-1.31-.93c-.84-.59-2.05-1.24-3.64-1.95-1.58-.71-3.54-1.35-5.89-1.92-2.34-.57-5.01-.86-8.01-.86s-5.7.39-8.41,1.16c-2.71.78-5.1,1.95-7.17,3.51-2.07,1.57-3.73,3.54-4.98,5.91-1.25,2.38-1.87,5.16-1.87,8.36,0,2.29.45,4.41,1.34,6.37.89,1.95,2.13,3.65,3.71,5.08,1.58,1.43,3.49,2.55,5.71,3.36,2.22.81,4.68,1.21,7.38,1.21,4.04,0,7.91-.86,11.62-2.58,3.71-1.72,7.28-4.04,10.71-6.97,3.44-2.93,6.74-6.35,9.93-10.26,3.18-3.91,6.25-8.03,9.19-12.38s5.8-8.81,8.56-13.39c2.76-4.58,5.44-9,8.03-13.26,2.59-4.26,5.12-8.25,7.58-11.97,2.46-3.72,4.87-6.93,7.22-9.62l2.27,1.36c-1.48,4.51-2.76,8.48-3.84,11.9-1.08,3.42-2.01,6.42-2.8,9.02-.79,2.59-1.47,4.83-2.02,6.72-.56,1.89-1.04,3.57-1.44,5.05-.4,1.48-.77,2.82-1.09,4.02-.32,1.2-.64,2.38-.96,3.56-.32,1.18-.68,2.42-1.09,3.74-.4,1.31-.89,2.84-1.46,4.57-.57,1.74-1.25,3.74-2.02,6.01-.77,2.27-1.72,4.96-2.83,8.06,2.83-4.28,5.73-8.49,8.71-12.63,2.98-4.14,5.95-8.15,8.92-12.02,2.96-3.87,5.87-7.58,8.72-11.11,2.85-3.54,5.54-6.82,8.08-9.85,2.54-3.03,4.88-5.78,7.02-8.26,2.14-2.48,4-4.59,5.58-6.34,1.58-1.75,2.82-3.12,3.71-4.09.89-.98,1.36-1.48,1.39-1.52l2.12,1.57c-1.99,4.92-3.96,9.84-5.91,14.78-1.95,4.93-3.83,9.74-5.63,14.42s-3.48,9.19-5.03,13.54c-1.55,4.34-2.9,8.41-4.04,12.2-1.15,3.79-2.05,7.24-2.7,10.36s-.98,5.78-.98,8.01c0,2.63.31,5,.93,7.12.62,2.12,1.52,3.92,2.7,5.41,1.18,1.48,2.64,2.62,4.37,3.41,1.73.79,3.7,1.19,5.89,1.19,1.65,0,3.26-.19,4.82-.56,1.57-.37,2.96-.78,4.17-1.21,1.21-.44,2.19-.84,2.93-1.21.74-.37,1.13-.56,1.16-.56l1.31,2.27Z"/>
    <path class="cls-3" d="M598.42,95.52c-.44.88-1.05,2.03-1.84,3.46-.79,1.43-1.64,3-2.55,4.7-.91,1.7-1.84,3.49-2.78,5.36-.94,1.87-1.79,3.69-2.55,5.46s-1.37,3.43-1.84,4.98c-.47,1.55-.71,2.86-.71,3.94,0,.98.2,1.64.61,2,.4.35.98.53,1.72.53,1.38,0,2.73-.46,4.04-1.36s2.62-2.1,3.92-3.56c1.3-1.47,2.57-3.14,3.81-5.03,1.25-1.89,2.49-3.79,3.74-5.71l1.82,1.42c-.98,1.75-2.08,3.62-3.31,5.61-1.23,1.99-2.6,3.83-4.12,5.53-1.52,1.7-3.18,3.11-5,4.22s-3.81,1.67-5.96,1.67c-2.02,0-3.57-.61-4.65-1.82-1.08-1.21-1.62-2.78-1.62-4.7,0-2.26.52-4.61,1.57-7.07,1.04-2.46,2.35-4.89,3.92-7.3,1.57-2.41,3.27-4.72,5.1-6.95,1.84-2.22,3.53-4.24,5.08-6.06l1.62.71ZM607.86,84.31c0,.67-.17,1.37-.5,2.1-.34.72-.77,1.37-1.29,1.94-.52.57-1.1,1.04-1.74,1.42-.64.37-1.28.56-1.92.56-.57,0-1.01-.21-1.31-.63-.3-.42-.46-.93-.46-1.54,0-.54.1-1.18.3-1.92s.51-1.44.91-2.1c.4-.66.89-1.22,1.46-1.69.57-.47,1.23-.71,1.97-.71s1.31.27,1.82.81c.51.54.76,1.13.76,1.77Z"/>
    <path class="cls-3" d="M632.77,96.73c0-1.08-.43-1.93-1.29-2.55s-2.22-.93-4.07-.93c-1.52,0-3.04.33-4.57.99-1.53.66-3.01,1.56-4.42,2.7-1.41,1.15-2.74,2.51-3.97,4.09-1.23,1.58-2.29,3.3-3.18,5.15-.89,1.85-1.6,3.81-2.12,5.89-.52,2.07-.78,4.15-.78,6.24,0,1.68.18,3.12.56,4.29.37,1.18.89,2.14,1.57,2.88.67.74,1.48,1.27,2.43,1.59.94.32,2,.48,3.18.48,2.32,0,4.58-.52,6.77-1.57,2.19-1.04,4.27-2.4,6.24-4.07,1.97-1.67,3.79-3.53,5.46-5.58,1.67-2.05,3.14-4.07,4.42-6.06l1.87,1.42c-1.82,3.07-3.76,5.75-5.81,8.06-2.05,2.31-4.16,4.24-6.31,5.79-2.16,1.55-4.35,2.71-6.57,3.49-2.22.77-4.4,1.16-6.52,1.16-1.68,0-3.29-.25-4.82-.76-1.53-.5-2.88-1.27-4.04-2.3-1.16-1.03-2.09-2.35-2.78-3.97-.69-1.62-1.04-3.54-1.04-5.76,0-2.63.38-5.11,1.14-7.45s1.77-4.5,3.03-6.49c1.26-1.99,2.72-3.78,4.37-5.38,1.65-1.6,3.38-2.96,5.18-4.07,1.8-1.11,3.62-1.96,5.46-2.55,1.84-.59,3.56-.88,5.18-.88s3,.23,4.04.68c1.04.46,1.87,1,2.48,1.64.61.64,1.02,1.31,1.24,2.02.22.71.33,1.31.33,1.82,0,.81-.12,1.67-.35,2.58-.24.91-.56,1.74-.99,2.5-.42.76-.94,1.39-1.57,1.89-.62.5-1.31.76-2.05.76s-1.38-.24-1.92-.73c-.54-.49-.81-1.1-.81-1.84,0-.03.03-.24.08-.61.05-.37.21-.77.48-1.19.27-.42.68-.8,1.24-1.14s1.34-.51,2.35-.51h.61c.2-.54.3-1.11.3-1.72Z"/>
    <path class="cls-3" d="M645.86,109.37c1.78-2.42,3.64-4.66,5.56-6.69,1.92-2.04,3.86-3.8,5.81-5.28,1.95-1.48,3.88-2.63,5.78-3.46,1.9-.83,3.75-1.24,5.53-1.24,1.21,0,2.21.19,3.01.56.79.37,1.42.85,1.87,1.44.45.59.77,1.24.96,1.95.18.71.28,1.41.28,2.12,0,1.21-.25,2.52-.76,3.92-.51,1.4-1.14,2.85-1.89,4.37s-1.58,3.07-2.45,4.65c-.88,1.58-1.69,3.13-2.45,4.65s-1.39,2.99-1.89,4.42-.76,2.77-.76,4.02c0,.78.18,1.49.53,2.15.35.66.98.98,1.89.98,1.08,0,2.27-.55,3.59-1.64,1.31-1.09,2.65-2.49,4.02-4.19,1.36-1.7,2.73-3.59,4.09-5.68,1.36-2.09,2.63-4.12,3.81-6.11l1.82,1.42c-.37.5-.88,1.32-1.52,2.45-.64,1.13-1.39,2.39-2.25,3.79s-1.82,2.84-2.88,4.32c-1.06,1.48-2.19,2.84-3.38,4.07-1.2,1.23-2.45,2.24-3.76,3.03-1.31.79-2.64,1.19-3.99,1.19-.88,0-1.75-.1-2.63-.3-.88-.2-1.67-.57-2.37-1.11s-1.28-1.27-1.72-2.2c-.44-.93-.66-2.1-.66-3.51,0-1.65.28-3.33.83-5.03.56-1.7,1.25-3.38,2.07-5.05.83-1.67,1.73-3.28,2.7-4.85.98-1.57,1.88-3.04,2.7-4.42.82-1.38,1.52-2.63,2.07-3.76.56-1.13.83-2.08.83-2.85,0-1.38-.67-2.07-2.02-2.07-1.92,0-3.95.63-6.09,1.89-2.14,1.26-4.29,2.9-6.44,4.93-2.16,2.02-4.28,4.29-6.37,6.79-2.09,2.51-4.04,5.01-5.86,7.5l-7.68,14.45-4.6-1.82c4.28-9.33,8.39-18.55,12.35-27.66,3.96-9.11,8.02-18.11,12.2-27,.64-1.38,1.39-2.88,2.25-4.5.86-1.62,1.78-3.23,2.78-4.85.99-1.62,2.06-3.17,3.21-4.65,1.14-1.48,2.32-2.79,3.54-3.94,1.21-1.14,2.47-2.06,3.76-2.75,1.3-.69,2.6-1.04,3.92-1.04,1.48,0,2.63.41,3.46,1.24.83.83,1.24,2,1.24,3.51s-.42,3.38-1.26,5.38c-.84,2-1.97,4.12-3.39,6.34-1.41,2.22-3.06,4.51-4.93,6.87-1.87,2.36-3.84,4.7-5.91,7.02-2.07,2.32-4.17,4.57-6.29,6.75-2.12,2.17-4.16,4.19-6.11,6.04l-6.16,13.49ZM675.46,55.41c-1.52,0-2.9.58-4.17,1.74-1.26,1.16-2.64,3.07-4.12,5.73-1.48,2.66-3.18,6.13-5.1,10.41s-4.26,9.53-7.02,15.76c3.7-3.6,6.95-7.1,9.73-10.48,2.78-3.38,5.09-6.47,6.95-9.27,1.85-2.8,3.24-5.23,4.17-7.3.93-2.07,1.39-3.61,1.39-4.62,0-.61-.17-1.09-.51-1.44-.34-.35-.77-.53-1.31-.53Z"/>
    <path class="cls-3" d="M686.22,117.6c-.07.4-.12.81-.15,1.21-.03.4-.05.81-.05,1.21,0,1.21.18,2.37.53,3.46s.88,2.05,1.57,2.88c.69.83,1.55,1.47,2.58,1.95,1.03.47,2.2.71,3.51.71,4.41,0,8.67-1.5,12.78-4.5,4.11-3,8.2-7.75,12.28-14.25l1.72,1.52c-2.22,3.71-4.48,6.83-6.77,9.37-2.29,2.54-4.57,4.61-6.85,6.19-2.27,1.58-4.5,2.73-6.69,3.44-2.19.71-4.28,1.06-6.27,1.06-1.45,0-2.98-.2-4.6-.61s-3.11-1.08-4.47-2.02c-1.36-.94-2.49-2.21-3.38-3.79-.89-1.58-1.34-3.55-1.34-5.91,0-2.53.43-4.96,1.29-7.3s1.98-4.52,3.36-6.54c1.38-2.02,2.96-3.86,4.75-5.53,1.78-1.67,3.59-3.09,5.43-4.27,1.83-1.18,3.63-2.1,5.38-2.75,1.75-.66,3.3-.98,4.65-.98.88,0,1.77.13,2.68.4.91.27,1.73.69,2.45,1.26.72.57,1.31,1.33,1.77,2.27.45.94.68,2.07.68,3.38,0,1.79-.41,3.46-1.24,5.03-.83,1.57-1.93,3.01-3.31,4.34-1.38,1.33-2.98,2.53-4.8,3.59-1.82,1.06-3.72,1.96-5.71,2.7-1.99.74-3.99,1.33-6.01,1.77-2.02.44-3.94.67-5.76.71ZM686.63,115.43c2.26-.24,4.38-.71,6.37-1.42,1.99-.71,3.81-1.57,5.46-2.6,1.65-1.03,3.12-2.15,4.42-3.36,1.3-1.21,2.38-2.44,3.26-3.69.88-1.25,1.55-2.44,2.02-3.59.47-1.14.71-2.17.71-3.08s-.24-1.63-.73-2.17c-.49-.54-1.07-.81-1.74-.81-1.48,0-3.15.53-5,1.59-1.85,1.06-3.71,2.53-5.56,4.4-1.85,1.87-3.6,4.07-5.23,6.59-1.63,2.53-2.96,5.24-3.97,8.13Z"/>
    <path class="cls-3" d="M755.84,55.61c1.18,0,2.16.29,2.96.86.79.57,1.19,1.62,1.19,3.13,0,1.04-.21,2.29-.63,3.74-.42,1.45-.99,3.02-1.72,4.72-.72,1.7-1.57,3.49-2.55,5.36-.98,1.87-2.03,3.73-3.16,5.58-1.13,1.85-2.31,3.65-3.54,5.41-1.23,1.75-2.45,3.37-3.66,4.85-2.42,3-4.52,5.52-6.29,7.58-1.77,2.05-3.29,3.8-4.57,5.23-1.28,1.43-2.36,2.59-3.23,3.49-.88.89-1.65,1.66-2.32,2.3-.67.64-1.3,1.22-1.87,1.74-.57.52-1.16,1.1-1.77,1.74-.27,1.28-.4,2.5-.38,3.66.02,1.16.03,2.23.03,3.21,0,2.93.47,5.1,1.41,6.52.94,1.42,2.27,2.12,3.99,2.12,1.14,0,2.3-.29,3.46-.88,1.16-.59,2.31-1.36,3.46-2.3,1.14-.94,2.26-2.01,3.33-3.21,1.08-1.2,2.1-2.41,3.06-3.64s1.83-2.42,2.6-3.56c.77-1.14,1.45-2.14,2.02-2.98l1.87,1.42c-.1.13-.43.67-.99,1.59-.56.93-1.29,2.05-2.2,3.36-.91,1.31-1.99,2.72-3.23,4.22-1.25,1.5-2.59,2.89-4.04,4.17-1.45,1.28-2.97,2.34-4.57,3.18-1.6.84-3.23,1.26-4.88,1.26-1.38,0-2.7-.26-3.97-.78-1.26-.52-2.37-1.35-3.33-2.48-.96-1.13-1.74-2.57-2.32-4.32-.59-1.75-.88-3.86-.88-6.32,0-3.06.36-6.27,1.09-9.62.72-3.35,1.71-6.72,2.96-10.1,1.25-3.38,2.71-6.73,4.4-10.03,1.68-3.3,3.48-6.44,5.38-9.42,1.9-2.98,3.89-5.74,5.96-8.29,2.07-2.54,4.11-4.74,6.11-6.59,2-1.85,3.93-3.3,5.78-4.35,1.85-1.04,3.54-1.57,5.05-1.57ZM725.58,106.84c2.86-2.96,5.63-5.97,8.31-9.02s5.19-6.06,7.53-9.04c2.34-2.98,4.49-5.88,6.44-8.69,1.95-2.81,3.62-5.46,5-7.96,1.38-2.49,2.46-4.77,3.23-6.82.77-2.05,1.16-3.82,1.16-5.3,0-.27-.13-.63-.4-1.09-.27-.45-.59-.68-.96-.68-1.04,0-2.43.69-4.14,2.07-1.72,1.38-3.58,3.26-5.58,5.63-2,2.38-4.08,5.15-6.21,8.31-2.14,3.17-4.15,6.55-6.04,10.15-1.89,3.6-3.57,7.33-5.05,11.17-1.48,3.84-2.58,7.6-3.28,11.27Z"/>
  </g>
  <g>
    <g>
      <path class="cls-2" d="M115.62,69.07c0,4.93-4,8.93-8.93,8.93s-8.93-4-8.93-8.93,4-8.93,8.93-8.93,8.93,4,8.93,8.93Z"/>
      <path class="cls-2" d="M163.55,92.46c-2.48-.2-8.68-.78-17.69,1.61-1.14-9.29-3.7-16.51-6.87-24.21-12.61,4.43-23.93,11.81-32.3,20.07-8.38-8.26-19.69-15.64-32.3-20.07-3.17,7.7-5.73,14.92-6.87,24.21-9.67-2.53-15.21-1.81-17.69-1.61-2.66,14.01-.63,29.93,7.92,41.58,12.1,16.49,31.29,17.75,41.19,19.19-4.15-4.03-13.57-14.61-15.57-17.22,0,0-.04-.04-.04-.04h0c-8.88-11.6-11.68-23.73-11.03-37.9.13-2.91.66-5.85,1.09-8h0c.88-4.58,2.2-9.12,3.9-13.58,4.77,2.04,16.06,7.53,25.9,17.27-3.67,4.17-6.72,8.61-9.12,13.28,0,0-6.93-6.24-17.79-10.06-.19,1.82-.25,3.73-.19,5.55,15.85,6.87,26.45,18.77,30.51,25.64,3.39-4.44,5.64-7.91,10.76-12.66.95,2.57,1.69,5.22,2.24,7.91-1.58,2.54-6.76,10.44-12.91,15.54-6.15-5.1-11.33-13-12.91-15.54.28-1.39.53-2.64.92-4.01-1.22-1.21-2.74-2.5-4.28-3.71-1.02,3.08-1.55,5.75-2.09,8.69,6.18,11.28,13.01,16.85,18.29,21.12,5.58-4.44,13.32-10.95,18.45-21.12-2.35-13.37-10.22-24.87-12.44-27.68-1.26,1.23-2.54,2.54-3.63,3.79,2.45,3.19,4.54,6.52,6.22,9.98-3.14,2.76-5.96,5.73-8.53,9-2.57-3.26-5.39-6.24-8.52-9,4.1-8.4,11.44-16.73,14.92-19.43,0,0,0,0,0,0,9.07-8.05,18.69-12.71,22.99-14.55,2.48,6.52,4.07,12.93,4.74,19.1-6.91,2.36-13.03,5.54-18.72,9.51.85,1.43,1.64,3.11,2.31,4.72,5.08-3.62,12.59-7.67,19.26-9.7,6.1-1.86,12.57-2.73,15.44-2.73.62,5.51,1.4,21.25-7.65,33.59-5.17,7.04-12.76,11.92-22.63,14.54,7.31-7.52,17.34-21.61,17.54-42.43-1.75.5-3.58,1.07-5.22,1.69-.49,13.58-5.31,23.63-11.11,31.19h0c-.4.45-9.3,11.15-15.61,17.26,9.9-1.44,29.1-2.7,41.19-19.19,8.55-11.65,10.58-27.57,7.92-41.58ZM84.55,145.52c-9.87-2.63-17.46-7.5-22.63-14.54-9.05-12.34-8.27-28.08-7.65-33.59h.11c3.76,0,8.11.66,12.69,1.94-1.06,22.9,9.74,38.24,17.48,46.2Z"/>
    </g>
    <rect class="cls-1" x="15.78" y="15.78" width="181.82" height="181.82" rx="56.44" ry="56.44" transform="translate(106.69 -44.19) rotate(45)"/>
  </g>
</svg>